# Blender v3.6.4 OBJ File: ''
# www.blender.org
mtllib hangar.mtl
o Object001_Malla
v -21.563128 9.063880 43.221928
v 21.556585 9.063878 3.432438
v -21.563128 9.063878 3.432438
v -21.563128 0.000157 43.221928
v 21.556585 9.063880 43.221928
v 21.556585 0.000157 43.221928
v 21.556585 0.000155 3.432438
v -21.563128 0.000157 31.248390
v -21.108450 7.976233 31.248390
v -21.563128 7.976233 31.248390
v -21.108450 0.000157 40.434563
v -21.108450 7.976234 40.434563
v -21.563128 7.976234 40.434563
v -21.563128 0.000157 40.434563
v -21.563128 0.000156 18.734097
v -21.108450 7.976233 18.734097
v -21.563128 7.976233 18.734097
v -21.108450 0.000157 27.920269
v -21.108450 7.976233 27.920269
v -21.563128 7.976233 27.920269
v -21.563128 0.000157 27.920269
v -21.108450 0.000157 31.248390
v -21.563128 0.000156 6.219803
v -21.108450 7.976232 6.219803
v -21.563128 7.976232 6.219803
v -21.108450 0.000156 15.405975
v -21.108450 7.976233 15.405975
v -21.563128 7.976233 15.405975
v -21.563128 0.000156 15.405975
v -21.563128 0.000155 3.432438
v -21.108450 0.000156 18.734097
v -21.108450 0.000156 6.219803
v 21.556585 0.000157 31.248390
v 21.057491 0.000157 40.434563
v 21.057491 0.000157 31.248390
v 21.556585 0.000157 40.434563
v 21.556585 7.976234 40.434563
v 21.556585 7.976233 31.248390
v 21.057491 7.976233 31.248390
v 21.057491 7.976234 40.434563
v 21.556585 0.000156 18.734097
v 21.057491 0.000157 27.920269
v 21.057491 0.000156 18.734097
v 21.556585 0.000157 27.920269
v 21.556585 7.976233 27.920269
v 21.556585 7.976233 18.734097
v 21.057491 7.976233 18.734097
v 21.057491 7.976233 27.920269
v 21.556585 0.000156 6.219803
v 21.057491 0.000156 15.405975
v 21.057491 0.000156 6.219803
v 21.556585 0.000156 15.405975
v 21.556585 7.976233 15.405975
v 21.556585 7.976232 6.219803
v 21.057491 7.976232 6.219803
v 21.057491 7.976233 15.405975
v 21.529823 -0.000425 3.565901
v 21.752527 -0.000425 3.565901
v 21.529823 -0.000425 3.343193
v 21.752527 -0.000425 3.343193
v 21.529823 9.070145 3.565901
v 21.752527 9.070145 3.565901
v 21.529823 9.070145 3.343193
v 21.752527 9.070145 3.343193
v -21.921989 9.064321 43.455482
v 21.915447 9.064321 43.455482
v -21.921989 9.064319 3.453352
v 21.915447 9.064319 3.453352
v -21.921989 9.685988 43.455482
v 21.915447 9.685988 43.455482
v -21.921989 9.685987 3.453352
v 21.915447 9.685987 3.453352
v -21.563128 9.063878 3.432156
v 21.556585 9.063876 -36.357342
v -21.563128 9.063876 -36.357342
v -21.563128 0.000155 3.432156
v 21.556585 9.063878 3.432156
v 21.556585 0.000155 3.432156
v 21.556585 0.000153 -36.357342
v -21.563128 0.000154 -8.541384
v -21.108450 7.976231 -8.541384
v -21.563128 7.976231 -8.541384
v -21.108450 0.000155 0.644789
v -21.108450 7.976231 0.644789
v -21.563128 7.976231 0.644789
v -21.563128 0.000155 0.644789
v -21.563128 0.000154 -21.055679
v -21.108450 7.976230 -21.055679
v -21.563128 7.976230 -21.055679
v -21.108450 0.000154 -11.869507
v -21.108450 7.976231 -11.869507
v -21.563128 7.976231 -11.869507
v -21.563128 0.000154 -11.869507
v -21.108450 0.000154 -8.541384
v -21.563128 0.000153 -33.569973
v -21.108450 7.976230 -33.569973
v -21.563128 7.976230 -33.569973
v -21.108450 0.000154 -24.383801
v -21.108450 7.976230 -24.383801
v -21.563128 7.976230 -24.383801
v -21.563128 0.000154 -24.383801
v -21.563128 0.000153 -36.357342
v -21.108450 0.000154 -21.055679
v -21.108450 0.000153 -33.569973
v 21.556585 0.000154 -8.541384
v 21.057491 0.000155 0.644789
v 21.057491 0.000154 -8.541384
v 21.556585 0.000155 0.644789
v 21.556585 7.976231 0.644789
v 21.556585 7.976231 -8.541384
v 21.057491 7.976231 -8.541384
v 21.057491 7.976231 0.644789
v 21.556585 0.000154 -21.055679
v 21.057491 0.000154 -11.869507
v 21.057491 0.000154 -21.055679
v 21.556585 0.000154 -11.869507
v 21.556585 7.976231 -11.869507
v 21.556585 7.976230 -21.055679
v 21.057491 7.976230 -21.055679
v 21.057491 7.976231 -11.869507
v 21.556585 0.000153 -33.569973
v 21.057491 0.000154 -24.383801
v 21.057491 0.000153 -33.569973
v 21.556585 0.000154 -24.383801
v 21.556585 7.976230 -24.383801
v 21.556585 7.976230 -33.569973
v 21.057491 7.976230 -33.569973
v 21.057491 7.976230 -24.383801
v -22.658361 9.685843 43.779694
v 22.651819 9.685843 43.779694
v -22.658361 9.685842 3.260265
v 22.651819 9.685842 3.260265
v -22.658361 9.846545 43.779694
v 22.651819 9.846545 43.779694
v -22.658361 9.846543 3.260265
v 22.651819 9.846543 3.260265
v 21.915447 9.064319 -36.566818
v -21.921989 9.064319 -36.566814
v 21.915451 9.064321 3.435310
v -21.921986 9.064321 3.435314
v 21.915447 9.685987 -36.566818
v -21.921989 9.685987 -36.566814
v 21.915451 9.685988 3.435310
v -21.921986 9.685988 3.435314
v 22.651819 9.685842 -36.904526
v -22.658361 9.685842 -36.904526
v 22.651825 9.685843 3.253208
v -22.658358 9.685843 3.253212
v 22.651819 9.846543 -36.904526
v -22.658361 9.846543 -36.904526
v 22.651825 9.846545 3.253208
v -22.658358 9.846545 3.253212
vt 0.998652 0.345619
vt 0.000445 0.345619
vt 0.000445 0.000097
vt 0.998652 0.000097
vt 0.998652 0.345619
vt 0.000445 0.345619
vt 0.000445 0.000097
vt 0.998652 0.000097
vt 0.998652 0.345619
vt 0.000445 0.345619
vt 0.000445 0.000097
vt 0.998652 0.000097
vt 0.028169 0.305929
vt 0.042247 0.305929
vt 0.042247 0.000660
vt 0.028169 0.000660
vt 0.000354 0.347818
vt 0.000354 0.546306
vt 0.331031 0.546306
vt 0.331031 0.347818
vt 0.047990 0.000817
vt 0.033912 0.000817
vt 0.033912 0.306086
vt 0.047990 0.306086
vt 0.409443 0.347353
vt 0.409443 0.340196
vt 0.230550 0.340196
vt 0.230550 0.347353
vt 0.028169 0.305929
vt 0.042247 0.305929
vt 0.042247 0.000660
vt 0.028169 0.000660
vt 0.330917 0.756320
vt 0.330917 0.999475
vt 0.000478 0.999475
vt 0.000478 0.756320
vt 0.047990 0.000817
vt 0.033912 0.000817
vt 0.033912 0.306086
vt 0.047990 0.306086
vt 0.409443 0.347353
vt 0.409443 0.340196
vt 0.230550 0.340196
vt 0.230550 0.347353
vt 0.028169 0.305929
vt 0.042247 0.305929
vt 0.042247 0.000660
vt 0.028169 0.000660
vt 0.331247 0.547945
vt 0.331247 0.754543
vt 0.000816 0.754543
vt 0.000816 0.547945
vt 0.047990 0.000817
vt 0.033912 0.000817
vt 0.033912 0.306086
vt 0.047990 0.306086
vt 0.230550 0.340197
vt 0.230550 0.347353
vt 0.409443 0.347353
vt 0.409443 0.340196
vt 0.409443 0.345028
vt 0.409443 0.337173
vt 0.230550 0.337173
vt 0.230550 0.345028
vt 0.027964 0.000817
vt 0.027964 0.306086
vt 0.043417 0.306086
vt 0.043417 0.000817
vt 0.666781 0.545727
vt 0.666781 0.350525
vt 0.332818 0.350525
vt 0.332818 0.545727
vt 0.032742 0.305929
vt 0.048195 0.305929
vt 0.048195 0.000660
vt 0.032742 0.000660
vt 0.032742 0.305929
vt 0.048195 0.305929
vt 0.048195 0.000660
vt 0.032742 0.000660
vt 0.409443 0.337173
vt 0.230550 0.337173
vt 0.230550 0.345028
vt 0.409443 0.345028
vt 0.043417 0.000817
vt 0.027964 0.000817
vt 0.027964 0.306086
vt 0.043417 0.306086
vt 0.000512 0.545831
vt 0.000512 0.347859
vt 0.330888 0.347859
vt 0.330888 0.545831
vt 0.032742 0.305929
vt 0.048195 0.305929
vt 0.048195 0.000660
vt 0.032742 0.000660
vt 0.409443 0.345028
vt 0.409443 0.337173
vt 0.230550 0.337173
vt 0.230550 0.345028
vt 0.043417 0.000817
vt 0.027964 0.000817
vt 0.027964 0.306086
vt 0.043417 0.306086
vt 0.000818 0.754541
vt 0.000818 0.547942
vt 0.331249 0.547942
vt 0.331249 0.754541
vt 0.928725 0.304156
vt 0.928725 0.000097
vt 0.998652 0.000097
vt 0.998652 0.345619
vt 0.698270 0.304156
vt 0.000445 0.000098
vt 0.070373 0.000097
vt 0.070372 0.304156
vt 0.300828 0.304156
vt 0.300828 0.000098
vt 0.384321 0.000097
vt 0.384321 0.304156
vt 0.614776 0.304156
vt 0.698270 0.000098
vt 0.614777 0.000097
vt 0.998652 0.024302
vt 0.988127 0.024302
vt 0.000445 0.000097
vt 0.988127 0.104072
vt 0.998652 0.104072
vt 0.998652 0.132973
vt 0.988127 0.132973
vt 0.988127 0.212743
vt 0.998652 0.212743
vt 0.998652 0.241644
vt 0.988127 0.241644
vt 0.988127 0.321414
vt 0.998652 0.321414
vt 0.998652 0.345619
vt 0.000445 0.345619
vt 0.000445 0.321414
vt 0.011999 0.321414
vt 0.011999 0.241644
vt 0.000445 0.241644
vt 0.000445 0.212743
vt 0.011999 0.212743
vt 0.011999 0.132973
vt 0.000445 0.132973
vt 0.000445 0.104072
vt 0.011999 0.104072
vt 0.011999 0.024302
vt 0.000445 0.024302
vt 0.928725 0.304156
vt 0.928725 0.000097
vt 0.998652 0.000097
vt 0.000445 0.345619
vt 0.698270 0.304156
vt 0.070372 0.000097
vt 0.070372 0.304156
vt 0.300828 0.304156
vt 0.300828 0.000097
vt 0.384321 0.000097
vt 0.384321 0.304156
vt 0.614776 0.304156
vt 0.698270 0.000097
vt 0.614776 0.000097
vt 0.849246 0.998151
vt 0.849246 0.346590
vt 0.864855 0.346590
vt 0.864855 0.998151
vt 0.864855 0.998151
vt 0.849246 0.998151
vt 0.849246 0.346590
vt 0.864855 0.346590
vt 0.864855 0.998151
vt 0.849246 0.998151
vt 0.849246 0.346590
vt 0.864855 0.346590
vt 0.849246 0.998151
vt 0.864855 0.346590
vt 0.864855 0.998151
vt 0.849246 0.998151
vt 0.849246 0.346590
vt 0.864855 0.346590
vt 0.864855 0.998151
vt 0.849246 0.346590
vt 0.999460 0.347655
vt 0.001564 0.347655
vt 0.001563 0.000612
vt 0.999460 0.000612
vt 0.999048 0.000598
vt 0.999048 0.345138
vt 0.000805 0.345138
vt 0.000805 0.000598
vt 0.002810 0.346136
vt 0.998683 0.346136
vt 0.998683 0.334180
vt 0.002810 0.334180
vt 0.001711 0.346137
vt 0.998140 0.346138
vt 0.998140 0.321684
vt 0.001711 0.321684
vt 0.002835 0.346181
vt 0.998709 0.346181
vt 0.998709 0.334226
vt 0.002835 0.334226
vt 0.001457 0.346150
vt 0.997330 0.346150
vt 0.997330 0.322343
vt 0.001457 0.322343
vt 0.998652 0.345619
vt 0.000445 0.345619
vt 0.000445 0.000097
vt 0.998652 0.000097
vt 0.998652 0.345619
vt 0.000445 0.345619
vt 0.000445 0.000097
vt 0.998652 0.000097
vt 0.998652 0.345619
vt 0.000445 0.345619
vt 0.000445 0.000097
vt 0.998652 0.000097
vt 0.028169 0.305929
vt 0.042247 0.305929
vt 0.042247 0.000660
vt 0.028169 0.000660
vt 0.333727 0.546865
vt 0.333727 0.756005
vt 0.667067 0.756005
vt 0.667067 0.546865
vt 0.047990 0.000817
vt 0.033912 0.000817
vt 0.033912 0.306086
vt 0.047990 0.306086
vt 0.409443 0.347353
vt 0.409443 0.340196
vt 0.230550 0.340196
vt 0.230550 0.347353
vt 0.028169 0.305929
vt 0.042247 0.305929
vt 0.042247 0.000660
vt 0.028169 0.000660
vt 0.667521 0.349739
vt 0.667521 0.545566
vt 0.332890 0.545566
vt 0.332890 0.349739
vt 0.047990 0.000817
vt 0.033912 0.000817
vt 0.033912 0.306086
vt 0.047990 0.306086
vt 0.409443 0.347353
vt 0.409443 0.340196
vt 0.230550 0.340196
vt 0.230550 0.347353
vt 0.028169 0.305929
vt 0.042247 0.305929
vt 0.042247 0.000660
vt 0.028169 0.000660
vt 0.666994 0.759078
vt 0.666994 0.998317
vt 0.333862 0.998317
vt 0.333862 0.759078
vt 0.047990 0.000817
vt 0.033912 0.000817
vt 0.033912 0.306086
vt 0.047990 0.306086
vt 0.230550 0.340197
vt 0.230550 0.347353
vt 0.409443 0.347353
vt 0.409443 0.340196
vt 0.409443 0.345028
vt 0.409443 0.337173
vt 0.230550 0.337173
vt 0.230550 0.345028
vt 0.027964 0.000817
vt 0.027964 0.306086
vt 0.043417 0.306086
vt 0.043417 0.000817
vt 0.666704 0.998408
vt 0.666704 0.759002
vt 0.333803 0.759002
vt 0.333803 0.998408
vt 0.032742 0.305929
vt 0.048195 0.305929
vt 0.048195 0.000660
vt 0.032742 0.000660
vt 0.032742 0.305929
vt 0.048195 0.305929
vt 0.048195 0.000660
vt 0.032742 0.000660
vt 0.409443 0.337173
vt 0.230550 0.337173
vt 0.230550 0.345028
vt 0.409443 0.345028
vt 0.043417 0.000817
vt 0.027964 0.000817
vt 0.027964 0.306086
vt 0.043417 0.306086
vt 0.333617 0.755901
vt 0.333617 0.546968
vt 0.666839 0.546968
vt 0.666839 0.755901
vt 0.032742 0.305929
vt 0.048195 0.305929
vt 0.048195 0.000660
vt 0.032742 0.000660
vt 0.409443 0.345028
vt 0.409443 0.337173
vt 0.230550 0.337173
vt 0.230550 0.345028
vt 0.043417 0.000817
vt 0.027964 0.000817
vt 0.027964 0.306086
vt 0.043417 0.306086
vt 0.000622 0.999297
vt 0.000622 0.756236
vt 0.331097 0.756236
vt 0.331097 0.999297
vt 0.928725 0.304156
vt 0.928725 0.000097
vt 0.998652 0.000097
vt 0.998652 0.345619
vt 0.698270 0.304156
vt 0.000445 0.000098
vt 0.070373 0.000097
vt 0.070372 0.304156
vt 0.300828 0.304156
vt 0.300828 0.000098
vt 0.384321 0.000097
vt 0.384321 0.304156
vt 0.614776 0.304156
vt 0.698270 0.000098
vt 0.614777 0.000097
vt 0.998652 0.024302
vt 0.988127 0.024302
vt 0.000445 0.000097
vt 0.988127 0.104072
vt 0.998652 0.104072
vt 0.998652 0.132973
vt 0.988127 0.132973
vt 0.988127 0.212743
vt 0.998652 0.212743
vt 0.998652 0.241644
vt 0.988127 0.241644
vt 0.988127 0.321414
vt 0.998652 0.321414
vt 0.998652 0.345619
vt 0.000445 0.345619
vt 0.000445 0.321414
vt 0.011999 0.321414
vt 0.011999 0.241644
vt 0.000445 0.241644
vt 0.000445 0.212743
vt 0.011999 0.212743
vt 0.011999 0.132973
vt 0.000445 0.132973
vt 0.000445 0.104072
vt 0.011999 0.104072
vt 0.011999 0.024302
vt 0.000445 0.024302
vt 0.928725 0.304156
vt 0.928725 0.000097
vt 0.998652 0.000097
vt 0.000445 0.345619
vt 0.698270 0.304156
vt 0.070372 0.000097
vt 0.070372 0.304156
vt 0.300828 0.304156
vt 0.300828 0.000097
vt 0.384321 0.000097
vt 0.384321 0.304156
vt 0.614776 0.304156
vt 0.698270 0.000097
vt 0.614776 0.000097
vt 0.670507 0.353860
vt 0.998173 0.353860
vt 0.998173 0.999180
vt 0.670507 0.999180
vt 0.998175 0.353832
vt 0.998175 0.999153
vt 0.670509 0.999153
vt 0.670508 0.353832
vt 0.997717 0.997090
vt 0.997717 0.352795
vt 0.983582 0.352795
vt 0.983582 0.997090
vt 0.997719 0.997442
vt 0.997719 0.353147
vt 0.983584 0.353147
vt 0.983584 0.997442
vt 0.997770 0.997074
vt 0.997770 0.352779
vt 0.983635 0.352779
vt 0.983635 0.997074
vt 0.997734 0.997966
vt 0.997733 0.353671
vt 0.983598 0.353671
vt 0.983598 0.997966
vt 0.999460 0.347655
vt 0.001564 0.347655
vt 0.001563 0.000612
vt 0.999460 0.000612
vt 0.999048 0.000598
vt 0.999048 0.345138
vt 0.000805 0.345138
vt 0.000805 0.000598
vt 0.002810 0.346136
vt 0.998683 0.346136
vt 0.998683 0.334180
vt 0.002810 0.334180
vt 0.001711 0.346137
vt 0.998140 0.346138
vt 0.998140 0.321684
vt 0.001711 0.321684
vt 0.002835 0.346181
vt 0.998709 0.346181
vt 0.998709 0.334226
vt 0.002835 0.334226
vt 0.001457 0.346150
vt 0.997330 0.346150
vt 0.997330 0.322343
vt 0.001457 0.322343
vt 0.670507 0.353860
vt 0.998173 0.353860
vt 0.998173 0.999180
vt 0.670507 0.999180
vt 0.998175 0.353832
vt 0.998175 0.999153
vt 0.670509 0.999153
vt 0.670508 0.353832
vt 0.997717 0.997090
vt 0.997717 0.352795
vt 0.983582 0.352795
vt 0.983582 0.997090
vt 0.997719 0.997442
vt 0.997719 0.353147
vt 0.983584 0.353147
vt 0.983584 0.997442
vt 0.997770 0.997074
vt 0.997770 0.352779
vt 0.983635 0.352779
vt 0.983635 0.997074
vt 0.997734 0.997966
vt 0.997733 0.353671
vt 0.983598 0.353671
vt 0.983598 0.997966
vn 0.0000 1.0000 -0.0000
vn 0.0000 0.0000 1.0000
vn 0.0000 0.0000 -1.0000
vn -1.0000 0.0000 0.0000
vn 0.0000 -1.0000 0.0000
vn 1.0000 0.0000 0.0000
usemtl 01_-_Default
s 1
f 2/1/1 3/2/1 1/3/1
f 1/3/1 5/4/1 2/1/1
f 5/5/2 1/6/2 4/7/2
f 4/7/2 6/8/2 5/5/2
f 3/9/3 2/10/3 7/11/3
f 7/11/3 30/12/3 3/9/3
f 9/13/2 10/14/2 8/15/2
f 8/15/2 22/16/2 9/13/2
f 11/17/4 12/18/4 9/19/4
f 9/19/4 22/20/4 11/17/4
f 11/21/3 14/22/3 13/23/3
f 13/23/3 12/24/3 11/21/3
f 12/25/5 13/26/5 10/27/5
f 10/27/5 9/28/5 12/25/5
f 16/29/2 17/30/2 15/31/2
f 15/31/2 31/32/2 16/29/2
f 18/33/4 19/34/4 16/35/4
f 16/35/4 31/36/4 18/33/4
f 18/37/3 21/38/3 20/39/3
f 20/39/3 19/40/3 18/37/3
f 19/41/5 20/42/5 17/43/5
f 17/43/5 16/44/5 19/41/5
f 24/45/2 25/46/2 23/47/2
f 23/47/2 32/48/2 24/45/2
f 26/49/4 27/50/4 24/51/4
f 24/51/4 32/52/4 26/49/4
f 26/53/3 29/54/3 28/55/3
f 28/55/3 27/56/3 26/53/3
f 25/57/5 24/58/5 27/59/5
f 27/59/5 28/60/5 25/57/5
f 37/61/5 40/62/5 39/63/5
f 39/63/5 38/64/5 37/61/5
f 34/65/3 40/66/3 37/67/3
f 37/67/3 36/68/3 34/65/3
f 40/69/6 34/70/6 35/71/6
f 35/71/6 39/72/6 40/69/6
f 38/73/2 39/74/2 35/75/2
f 35/75/2 33/76/2 38/73/2
f 46/77/2 47/78/2 43/79/2
f 43/79/2 41/80/2 46/77/2
f 48/81/5 47/82/5 46/83/5
f 46/83/5 45/84/5 48/81/5
f 44/85/3 42/86/3 48/87/3
f 48/87/3 45/88/3 44/85/3
f 48/89/6 42/90/6 43/91/6
f 43/91/6 47/92/6 48/89/6
f 54/93/2 55/94/2 51/95/2
f 51/95/2 49/96/2 54/93/2
f 53/97/5 56/98/5 55/99/5
f 55/99/5 54/100/5 53/97/5
f 52/101/3 50/102/3 56/103/3
f 56/103/3 53/104/3 52/101/3
f 56/105/6 50/106/6 51/107/6
f 51/107/6 55/108/6 56/105/6
f 13/109/4 14/110/4 4/111/4
f 13/109/4 4/111/4 1/112/4
f 13/109/4 1/112/4 3/2/4
f 10/113/4 13/109/4 3/2/4
f 30/114/4 23/115/4 25/116/4
f 3/2/4 30/114/4 25/116/4
f 3/2/4 25/116/4 28/117/4
f 28/117/4 29/118/4 15/119/4
f 28/117/4 15/119/4 17/120/4
f 3/2/4 28/117/4 17/120/4
f 3/2/4 17/120/4 20/121/4
f 10/113/4 3/2/4 20/121/4
f 8/122/4 10/113/4 20/121/4
f 8/122/4 20/121/4 21/123/4
f 4/111/5 14/124/5 11/125/5
f 6/126/5 4/111/5 11/125/5
f 22/127/5 8/128/5 21/129/5
f 22/127/5 21/129/5 18/130/5
f 31/131/5 15/132/5 29/133/5
f 31/131/5 29/133/5 26/134/5
f 32/135/5 23/136/5 30/137/5
f 32/135/5 30/137/5 7/138/5
f 7/138/5 49/139/5 51/140/5
f 32/135/5 7/138/5 51/140/5
f 32/135/5 51/140/5 50/141/5
f 26/134/5 32/135/5 50/141/5
f 31/131/5 26/134/5 50/141/5
f 50/141/5 52/142/5 41/143/5
f 50/141/5 41/143/5 43/144/5
f 31/131/5 50/141/5 43/144/5
f 18/130/5 31/131/5 43/144/5
f 18/130/5 43/144/5 42/145/5
f 22/127/5 18/130/5 42/145/5
f 42/145/5 44/146/5 33/147/5
f 42/145/5 33/147/5 35/148/5
f 22/127/5 42/145/5 35/148/5
f 11/125/5 22/127/5 35/148/5
f 11/125/5 35/148/5 34/149/5
f 6/126/5 11/125/5 34/149/5
f 6/126/5 34/149/5 36/150/5
f 54/151/6 49/152/6 7/153/6
f 54/151/6 7/153/6 2/1/6
f 54/151/6 2/1/6 5/154/6
f 53/155/6 54/151/6 5/154/6
f 6/126/6 36/156/6 37/157/6
f 5/154/6 6/126/6 37/157/6
f 5/154/6 37/157/6 38/158/6
f 38/158/6 33/159/6 44/160/6
f 38/158/6 44/160/6 45/161/6
f 5/154/6 38/158/6 45/161/6
f 5/154/6 45/161/6 46/162/6
f 53/155/6 5/154/6 46/162/6
f 52/163/6 53/155/6 46/162/6
f 52/163/6 46/162/6 41/164/6
f 60/165/5 58/166/5 57/167/5
f 57/167/5 59/168/5 60/165/5
f 64/169/1 63/170/1 61/171/1
f 61/171/1 62/172/1 64/169/1
f 62/173/2 61/174/2 57/175/2
f 57/175/2 58/176/2 62/173/2
f 64/169/6 62/177/6 58/166/6
f 58/166/6 60/178/6 64/169/6
f 63/179/3 64/180/3 60/181/3
f 60/181/3 59/182/3 63/179/3
f 61/183/4 63/170/4 59/184/4
f 59/184/4 57/167/4 61/183/4
f 68/185/5 66/186/5 65/187/5
f 65/187/5 67/188/5 68/185/5
f 72/189/1 71/190/1 69/191/1
f 69/191/1 70/192/1 72/189/1
f 70/193/2 69/194/2 65/195/2
f 65/195/2 66/196/2 70/193/2
f 72/197/6 70/198/6 66/199/6
f 66/199/6 68/200/6 72/197/6
f 71/201/3 72/202/3 68/203/3
f 68/203/3 67/204/3 71/201/3
f 69/205/4 71/206/4 67/207/4
f 67/207/4 65/208/4 69/205/4
f 74/209/1 75/210/1 73/211/1
f 73/211/1 77/212/1 74/209/1
f 77/213/2 73/214/2 76/215/2
f 76/215/2 78/216/2 77/213/2
f 75/217/3 74/218/3 79/219/3
f 79/219/3 102/220/3 75/217/3
f 81/221/2 82/222/2 80/223/2
f 80/223/2 94/224/2 81/221/2
f 83/225/4 84/226/4 81/227/4
f 81/227/4 94/228/4 83/225/4
f 83/229/3 86/230/3 85/231/3
f 85/231/3 84/232/3 83/229/3
f 84/233/5 85/234/5 82/235/5
f 82/235/5 81/236/5 84/233/5
f 88/237/2 89/238/2 87/239/2
f 87/239/2 103/240/2 88/237/2
f 90/241/4 91/242/4 88/243/4
f 88/243/4 103/244/4 90/241/4
f 90/245/3 93/246/3 92/247/3
f 92/247/3 91/248/3 90/245/3
f 91/249/5 92/250/5 89/251/5
f 89/251/5 88/252/5 91/249/5
f 96/253/2 97/254/2 95/255/2
f 95/255/2 104/256/2 96/253/2
f 98/257/4 99/258/4 96/259/4
f 96/259/4 104/260/4 98/257/4
f 98/261/3 101/262/3 100/263/3
f 100/263/3 99/264/3 98/261/3
f 97/265/5 96/266/5 99/267/5
f 99/267/5 100/268/5 97/265/5
f 109/269/5 112/270/5 111/271/5
f 111/271/5 110/272/5 109/269/5
f 106/273/3 112/274/3 109/275/3
f 109/275/3 108/276/3 106/273/3
f 112/277/6 106/278/6 107/279/6
f 107/279/6 111/280/6 112/277/6
f 110/281/2 111/282/2 107/283/2
f 107/283/2 105/284/2 110/281/2
f 118/285/2 119/286/2 115/287/2
f 115/287/2 113/288/2 118/285/2
f 120/289/5 119/290/5 118/291/5
f 118/291/5 117/292/5 120/289/5
f 116/293/3 114/294/3 120/295/3
f 120/295/3 117/296/3 116/293/3
f 120/297/6 114/298/6 115/299/6
f 115/299/6 119/300/6 120/297/6
f 126/301/2 127/302/2 123/303/2
f 123/303/2 121/304/2 126/301/2
f 125/305/5 128/306/5 127/307/5
f 127/307/5 126/308/5 125/305/5
f 124/309/3 122/310/3 128/311/3
f 128/311/3 125/312/3 124/309/3
f 128/313/6 122/314/6 123/315/6
f 123/315/6 127/316/6 128/313/6
f 85/317/4 86/318/4 76/319/4
f 85/317/4 76/319/4 73/320/4
f 85/317/4 73/320/4 75/210/4
f 82/321/4 85/317/4 75/210/4
f 102/322/4 95/323/4 97/324/4
f 75/210/4 102/322/4 97/324/4
f 75/210/4 97/324/4 100/325/4
f 100/325/4 101/326/4 87/327/4
f 100/325/4 87/327/4 89/328/4
f 75/210/4 100/325/4 89/328/4
f 75/210/4 89/328/4 92/329/4
f 82/321/4 75/210/4 92/329/4
f 80/330/4 82/321/4 92/329/4
f 80/330/4 92/329/4 93/331/4
f 76/319/5 86/332/5 83/333/5
f 78/334/5 76/319/5 83/333/5
f 94/335/5 80/336/5 93/337/5
f 94/335/5 93/337/5 90/338/5
f 103/339/5 87/340/5 101/341/5
f 103/339/5 101/341/5 98/342/5
f 104/343/5 95/344/5 102/345/5
f 104/343/5 102/345/5 79/346/5
f 79/346/5 121/347/5 123/348/5
f 104/343/5 79/346/5 123/348/5
f 104/343/5 123/348/5 122/349/5
f 98/342/5 104/343/5 122/349/5
f 103/339/5 98/342/5 122/349/5
f 122/349/5 124/350/5 113/351/5
f 122/349/5 113/351/5 115/352/5
f 103/339/5 122/349/5 115/352/5
f 90/338/5 103/339/5 115/352/5
f 90/338/5 115/352/5 114/353/5
f 94/335/5 90/338/5 114/353/5
f 114/353/5 116/354/5 105/355/5
f 114/353/5 105/355/5 107/356/5
f 94/335/5 114/353/5 107/356/5
f 83/333/5 94/335/5 107/356/5
f 83/333/5 107/356/5 106/357/5
f 78/334/5 83/333/5 106/357/5
f 78/334/5 106/357/5 108/358/5
f 126/359/6 121/360/6 79/361/6
f 126/359/6 79/361/6 74/209/6
f 126/359/6 74/209/6 77/362/6
f 125/363/6 126/359/6 77/362/6
f 78/334/6 108/364/6 109/365/6
f 77/362/6 78/334/6 109/365/6
f 77/362/6 109/365/6 110/366/6
f 110/366/6 105/367/6 116/368/6
f 110/366/6 116/368/6 117/369/6
f 77/362/6 110/366/6 117/369/6
f 77/362/6 117/369/6 118/370/6
f 125/363/6 77/362/6 118/370/6
f 124/371/6 125/363/6 118/370/6
f 124/371/6 118/370/6 113/372/6
f 132/373/5 130/374/5 129/375/5
f 129/375/5 131/376/5 132/373/5
f 136/377/1 135/378/1 133/379/1
f 133/379/1 134/380/1 136/377/1
f 134/381/2 133/382/2 129/383/2
f 129/383/2 130/384/2 134/381/2
f 136/385/6 134/386/6 130/387/6
f 130/387/6 132/388/6 136/385/6
f 135/389/3 136/390/3 132/391/3
f 132/391/3 131/392/3 135/389/3
f 133/393/4 135/394/4 131/395/4
f 131/395/4 129/396/4 133/393/4
f 140/397/5 138/398/5 137/399/5
f 137/399/5 139/400/5 140/397/5
f 144/401/1 143/402/1 141/403/1
f 141/403/1 142/404/1 144/401/1
f 142/405/3 141/406/3 137/407/3
f 137/407/3 138/408/3 142/405/3
f 144/409/4 142/410/4 138/411/4
f 138/411/4 140/412/4 144/409/4
f 143/413/2 144/414/2 140/415/2
f 140/415/2 139/416/2 143/413/2
f 141/417/6 143/418/6 139/419/6
f 139/419/6 137/420/6 141/417/6
f 148/421/5 146/422/5 145/423/5
f 145/423/5 147/424/5 148/421/5
f 152/425/1 151/426/1 149/427/1
f 149/427/1 150/428/1 152/425/1
f 150/429/3 149/430/3 145/431/3
f 145/431/3 146/432/3 150/429/3
f 152/433/4 150/434/4 146/435/4
f 146/435/4 148/436/4 152/433/4
f 151/437/2 152/438/2 148/439/2
f 148/439/2 147/440/2 151/437/2
f 149/441/6 151/442/6 147/443/6
f 147/443/6 145/444/6 149/441/6
